# xmcd CD database file
# Copyright (C) 1995 Ti Kan
#
# Track frame offsets:
#	150
#	14916
#	33601
#	49344
#	74819
#	89770
#	103732
#	124757
#	139951
#	156391
#	173119
#	186488
#	225962
#
# Disc length: 3255 seconds
#
# Revision: 1
# Processed by: cddbd v1.4PL0 Copyright (c) Steve Scherf et al.
# Submitted via: NotifyCDPlayer(CDDB) 1.60beta5_freedb
#
DISCID=ca0cb50d
DTITLE=Ecstacy, Passion and Pain - Ecstacy, Passion and Pain
DYEAR=1900
DGENRE=
TTITLE0=Ask Me
TTITLE1=Let's Love
TTITLE2=I Wouldn't Give You Up
TTITLE3=I'll Take The Blame
TTITLE4=Try To Believe Me
TTITLE5=I'll Do Anything For You
TTITLE6=Don't Burn Your Bridges Behind You
TTITLE7=Somebody's Loving You
TTITLE8=Born To Lose You
TTITLE9=Good Things Don't Last Forever
TTITLE10=One Beautiful Day
TTITLE11=Touch And Go (A Tom Moulton Mix)
TTITLE12=Ask Me (Alternate Take - Previously Unissued)
EXTD=1999 reissue
EXTT0=
EXTT1=
EXTT2=
EXTT3=
EXTT4=
EXTT5=
EXTT6=
EXTT7=
EXTT8=
EXTT9=
EXTT10=
EXTT11=
EXTT12=
PLAYORDER=
